HIERARCHY
ROOT Hips
{
	OFFSET 0.000000 103.266502 0.000000
	CHANNELS 6 Xposition Yposition Zposition Xrotation Yrotation Zrotation 
	JOINT Spine
	{
		OFFSET -0.002400 12.777504 0.315300
		CHANNELS 3 Xrotation Yrotation Zrotation
		JOINT Spine1
		{
			OFFSET -0.002067 5.816869 0.032633
			CHANNELS 3 Xrotation Yrotation Zrotation
			JOINT Spine1_split
			{
				OFFSET -0.002067 5.816869 0.032633
				CHANNELS 3 Xrotation Yrotation Zrotation
				JOINT Spine2
				{
					OFFSET -0.002067 5.816869 0.032633
					CHANNELS 3 Xrotation Yrotation Zrotation
					JOINT Neck
					{
						OFFSET -0.003700 21.199493 -0.826900
						CHANNELS 3 Xrotation Yrotation Zrotation
						JOINT Head
						{
							OFFSET 0.000000 20.442200 4.834800
							CHANNELS 3 Xrotation Yrotation Zrotation
							JOINT HeadTop_End
							{
								OFFSET 0.000000 34.668396 4.968400
								CHANNELS 3 Xrotation Yrotation Zrotation
								End Site
								{
									OFFSET 0.000000 0.000000 0.000000
								}
							}
						}
					}
					JOINT LeftShoulder
					{
						OFFSET 3.288150 8.794197 -1.372250
						CHANNELS 3 Xrotation Yrotation Zrotation
						JOINT LeftShoulder_split
						{
							OFFSET 3.288150 8.794197 -1.372250
							CHANNELS 3 Xrotation Yrotation Zrotation
							JOINT LeftArm
							{
								OFFSET 11.953299 -2.279007 -0.146200
								CHANNELS 3 Xrotation Yrotation Zrotation
								JOINT LeftForeArm
								{
									OFFSET 18.448900 0.000000 0.000000
									CHANNELS 3 Xrotation Yrotation Zrotation
									JOINT LeftHand
									{
										OFFSET 29.527798 0.000000 0.000000
										CHANNELS 3 Xrotation Yrotation Zrotation
										JOINT LeftHandThumb1
										{
											OFFSET 10.739754 -2.369614 9.225399
											CHANNELS 3 Xrotation Yrotation Zrotation
											JOINT LeftHandThumb2
											{
												OFFSET 4.926170 -2.844131 2.844125
												CHANNELS 3 Xrotation Yrotation Zrotation
												JOINT LeftHandThumb3
												{
													OFFSET 4.614891 -2.664413 2.664409
													CHANNELS 3 Xrotation Yrotation Zrotation
													JOINT LeftHandThumb4
													{
														OFFSET 4.432465 -2.559082 2.559083
														CHANNELS 3 Xrotation Yrotation Zrotation
														End Site
														{
															OFFSET 0.000000 0.000000 0.000000
														}
													}
												}
											}
										}
										JOINT LeftHandIndex1
										{
											OFFSET 26.467674 0.187653 6.405298
											CHANNELS 3 Xrotation Yrotation Zrotation
											JOINT LeftHandIndex2
											{
												OFFSET 8.792900 0.000000 0.000000
												CHANNELS 3 Xrotation Yrotation Zrotation
												JOINT LeftHandIndex3
												{
													OFFSET 10.075203 0.000000 0.000000
													CHANNELS 3 Xrotation Yrotation Zrotation
													End Site
													{
														OFFSET 0.000000 0.000000 0.000000
													}
												}
											}
										}
										JOINT LeftHandMiddle1
										{
											OFFSET 25.764404 0.000000 0.000000
											CHANNELS 3 Xrotation Yrotation Zrotation
											JOINT LeftHandMiddle2
											{
												OFFSET 9.393974 0.000000 0.000000
												CHANNELS 3 Xrotation Yrotation Zrotation
												JOINT LeftHandMiddle3
												{
													OFFSET 10.771950 0.000000 0.000000
													CHANNELS 3 Xrotation Yrotation Zrotation
													End Site
													{
														OFFSET 0.000000 0.000000 0.000000
													}
												}
											}
										}
										JOINT LeftHandRing1
										{
											OFFSET 24.660927 0.144547 -6.225808
											CHANNELS 3 Xrotation Yrotation Zrotation
											JOINT LeftHandRing2
											{
												OFFSET 9.393799 0.000000 0.000000
												CHANNELS 3 Xrotation Yrotation Zrotation
												JOINT LeftHandRing3
												{
													OFFSET 9.928497 0.000000 0.000000
													CHANNELS 3 Xrotation Yrotation Zrotation
													End Site
													{
														OFFSET 0.000000 0.000000 0.000000
													}
												}
											}
										}
										JOINT LeftHandPinky1
										{
											OFFSET 23.655350 0.125290 -12.815412
											CHANNELS 3 Xrotation Yrotation Zrotation
											JOINT LeftHandPinky2
											{
												OFFSET 8.425102 0.000000 0.000000
												CHANNELS 3 Xrotation Yrotation Zrotation
												JOINT LeftHandPinky3
												{
													OFFSET 8.147003 0.000000 0.000000
													CHANNELS 3 Xrotation Yrotation Zrotation
													End Site
													{
														OFFSET 0.000000 0.000000 0.000000
													}
												}
											}
										}
									}
								}
							}
						}
					}
					JOINT RightShoulder
					{
						OFFSET -3.249400 8.794197 -1.372250
						CHANNELS 3 Xrotation Yrotation Zrotation
						JOINT RightShoulder_split
						{
							OFFSET -3.249400 8.794197 -1.372250
							CHANNELS 3 Xrotation Yrotation Zrotation
							JOINT RightArm
							{
								OFFSET -11.953299 -2.279007 -0.146200
								CHANNELS 3 Xrotation Yrotation Zrotation
								JOINT RightForeArm
								{
									OFFSET -18.448900 0.000000 0.000000
									CHANNELS 3 Xrotation Yrotation Zrotation
									JOINT RightHand
									{
										OFFSET -29.527802 0.000000 0.000000
										CHANNELS 3 Xrotation Yrotation Zrotation
										JOINT RightHandThumb1
										{
											OFFSET -10.739754 -2.369614 9.225399
											CHANNELS 3 Xrotation Yrotation Zrotation
											JOINT RightHandThumb2
											{
												OFFSET -4.926170 -2.844131 2.844125
												CHANNELS 3 Xrotation Yrotation Zrotation
												JOINT RightHandThumb3
												{
													OFFSET -4.614891 -2.664413 2.664409
													CHANNELS 3 Xrotation Yrotation Zrotation
													JOINT RightHandThumb4
													{
														OFFSET -4.432465 -2.559082 2.559083
														CHANNELS 3 Xrotation Yrotation Zrotation
														End Site
														{
															OFFSET 0.000000 0.000000 0.000000
														}
													}
												}
											}
										}
										JOINT RightHandIndex1
										{
											OFFSET -26.467674 0.187653 6.405298
											CHANNELS 3 Xrotation Yrotation Zrotation
											JOINT RightHandIndex2
											{
												OFFSET -8.792900 0.000000 0.000000
												CHANNELS 3 Xrotation Yrotation Zrotation
												JOINT RightHandIndex3
												{
													OFFSET -10.075203 0.000000 0.000000
													CHANNELS 3 Xrotation Yrotation Zrotation
													End Site
													{
														OFFSET 0.000000 0.000000 0.000000
													}
												}
											}
										}
										JOINT RightHandMiddle1
										{
											OFFSET -25.764404 0.000000 0.000000
											CHANNELS 3 Xrotation Yrotation Zrotation
											JOINT RightHandMiddle2
											{
												OFFSET -9.393974 0.000000 0.000000
												CHANNELS 3 Xrotation Yrotation Zrotation
												JOINT RightHandMiddle3
												{
													OFFSET -10.771950 0.000000 0.000000
													CHANNELS 3 Xrotation Yrotation Zrotation
													End Site
													{
														OFFSET 0.000000 0.000000 0.000000
													}
												}
											}
										}
										JOINT RightHandRing1
										{
											OFFSET -24.660927 0.144547 -6.225808
											CHANNELS 3 Xrotation Yrotation Zrotation
											JOINT RightHandRing2
											{
												OFFSET -9.393799 0.000000 0.000000
												CHANNELS 3 Xrotation Yrotation Zrotation
												JOINT RightHandRing3
												{
													OFFSET -9.928497 0.000000 0.000000
													CHANNELS 3 Xrotation Yrotation Zrotation
													End Site
													{
														OFFSET 0.000000 0.000000 0.000000
													}
												}
											}
										}
										JOINT RightHandPinky1
										{
											OFFSET -23.655350 0.125290 -12.815412
											CHANNELS 3 Xrotation Yrotation Zrotation
											JOINT RightHandPinky2
											{
												OFFSET -8.425102 0.000000 0.000000
												CHANNELS 3 Xrotation Yrotation Zrotation
												JOINT RightHandPinky3
												{
													OFFSET -8.147003 0.000000 0.000000
													CHANNELS 3 Xrotation Yrotation Zrotation
													End Site
													{
														OFFSET 0.000000 0.000000 0.000000
													}
												}
											}
										}
									}
								}
							}
						}
					}
				}
			}
		}
	}
	JOINT LeftUpLeg
	{
		OFFSET 11.394100 -6.187798 -0.413800
		CHANNELS 3 Xrotation Yrotation Zrotation
		JOINT LeftLeg
		{
			OFFSET 0.430247 -32.302673 3.732800
			CHANNELS 3 Xrotation Yrotation Zrotation
			JOINT LeftFoot
			{
				OFFSET -0.430247 -48.264931 -6.423300
				CHANNELS 3 Xrotation Yrotation Zrotation
				JOINT LeftToeBase
				{
					OFFSET 4.230900 -16.068199 23.438400
					CHANNELS 3 Xrotation Yrotation Zrotation
					JOINT LeftToe_End
					{
						OFFSET 4.510700 0.695400 19.974600
						CHANNELS 3 Xrotation Yrotation Zrotation
						End Site
						{
							OFFSET 0.000000 0.000000 0.000000
						}
					}
				}
			}
		}
	}
	JOINT RightUpLeg
	{
		OFFSET -11.333700 -6.187798 -0.413800
		CHANNELS 3 Xrotation Yrotation Zrotation
		JOINT RightLeg
		{
			OFFSET -0.430392 -32.302628 3.733000
			CHANNELS 3 Xrotation Yrotation Zrotation
			JOINT RightFoot
			{
				OFFSET 0.430392 -48.264973 -6.423500
				CHANNELS 3 Xrotation Yrotation Zrotation
				JOINT RightToeBase
				{
					OFFSET -4.230900 -16.068199 23.438400
					CHANNELS 3 Xrotation Yrotation Zrotation
					JOINT RightToe_End
					{
						OFFSET -4.510700 0.695400 19.974600
						CHANNELS 3 Xrotation Yrotation Zrotation
						End Site
						{
							OFFSET 0.000000 0.000000 0.000000
						}
					}
				}
			}
		}
	}
}
MOTION
Frames: 6
Frame Time: 0.016667
-0.301238 89.714905 0.171705 3.020392 -58.275147 6.520218 11.191475 0.139473 -2.738947 8.434584 0.027705 -5.592322 0.000000 0.000000 0.000000 8.457062 0.027849 -5.591865 -21.555642 25.063369 12.062563 -0.294041 25.465758 -3.208976 -0.000000 0.000000 -0.000001 -6.221673 -11.503858 -4.023830 0.000000 0.000000 0.000000 -23.062175 9.568543 -36.639594 0.046100 -43.169121 -0.011176 22.743744 -5.685859 15.979287 -1.064237 -7.954917 8.490075 2.373405 19.986091 -2.038342 0.808199 1.237778 2.631748 0.000000 -0.000000 -0.000000 13.340879 -1.006683 10.682257 -0.167585 0.303382 -31.105631 -0.000000 -0.000001 0.000000 8.495445 -0.329584 -0.915310 0.231520 0.661196 -29.901875 -0.000001 0.000001 -0.000002 6.111749 3.150887 -16.210964 0.047050 0.322408 -30.125482 0.000000 0.000000 -0.000000 -5.636019 7.709845 -13.878628 0.224388 0.276602 -46.588389 0.000000 -0.000002 0.000000 -5.488240 10.658262 2.466535 0.000000 0.000000 0.000000 -41.473814 -26.755588 30.079077 24.955467 111.862980 -23.308456 -8.702493 12.423022 -9.801981 0.265014 10.061121 -10.888495 1.383812 -17.412881 3.016297 3.342334 -13.253722 -8.262751 -0.000001 -0.000001 0.000002 19.443600 11.174441 -13.340194 -0.118654 -0.322719 18.035594 0.000001 0.000000 0.000001 4.320484 2.436954 -4.811727 0.349127 -0.461246 26.890332 0.000002 -0.000004 -0.000001 -7.005632 -10.695123 5.719832 0.111859 -0.089203 26.155892 0.000001 0.000004 0.000003 -19.433507 -20.238187 5.987872 0.223761 -0.085819 36.844561 -0.000002 -0.000000 -0.000000 -38.843556 8.050729 26.435723 42.590471 -7.221112 -9.679307 -5.196404 -2.778835 -10.074064 -0.327618 1.238427 0.837254 0.000000 0.000000 -0.000000 -36.671429 -6.164108 -25.580191 47.512640 1.674749 -7.598835 -14.422144 3.648991 21.060033 -0.322762 -0.997444 -0.837125 -0.000000 0.000001 0.000000 
-0.319540 89.713181 0.227101 3.085997 -58.318109 6.550156 11.114278 0.156243 -2.712176 8.281117 0.065571 -5.543481 0.000000 0.000000 0.000000 8.303569 0.065712 -5.543005 -21.313515 24.821461 11.931890 -0.501502 25.223298 -3.073464 0.000001 0.000000 0.000000 -5.888013 -11.348867 -4.111614 0.000000 0.000000 0.000000 -23.088841 9.805522 -36.732074 -0.223602 -43.320355 -0.178068 22.774817 -5.786702 15.762760 -1.013336 -7.979036 8.385275 2.373235 19.985733 -2.038472 0.808358 1.237995 2.631756 -0.000001 -0.000000 0.000000 13.392779 -0.857333 10.369728 -0.168832 0.304170 -31.279155 -0.000001 -0.000000 -0.000000 8.501710 -0.177915 -1.121781 0.233298 0.661446 -30.053652 -0.000001 0.000000 -0.000002 6.115920 3.344605 -16.345864 0.048438 0.323119 -30.253035 0.000000 0.000001 -0.000001 -5.669042 7.954097 -13.849589 0.224916 0.276672 -46.648758 -0.000000 0.000000 -0.000000 -5.146261 10.690686 2.467583 0.000000 0.000000 0.000000 -41.573746 -27.076246 29.890059 27.927809 112.638364 -26.279991 -8.524172 12.683900 -9.630387 0.058328 10.763342 -10.139028 1.383856 -17.413050 3.016229 3.360110 -13.347152 -8.304070 -0.000000 -0.000001 -0.000000 19.385105 11.008851 -11.664736 -0.125425 -0.326338 19.069077 0.000001 0.000001 -0.000002 4.347769 1.811592 -3.663113 0.356061 -0.461065 27.691735 0.000001 -0.000004 -0.000000 -6.837588 -11.512226 6.465780 0.115965 -0.091558 26.770254 -0.000001 0.000000 0.000002 -19.227288 -20.531315 6.567957 0.226164 -0.086333 37.287321 0.000001 0.000000 0.000001 -38.910662 7.964574 26.406978 42.755236 -7.126586 -9.632359 -5.219675 -2.779282 -10.081962 -0.358549 1.237973 0.774029 0.000000 0.000002 0.000000 -36.639942 -6.055682 -25.457303 47.501838 1.546380 -7.670712 -14.379505 3.639457 21.144153 -0.374874 -0.996917 -0.814330 0.000000 -0.000000 0.000000 
-0.338013 89.704231 0.282471 3.151666 -58.361043 6.580432 11.105081 0.170107 -2.695684 8.263416 0.094362 -5.514626 0.000000 0.000000 0.000000 8.285899 0.094478 -5.514151 -21.429179 24.538196 11.838498 -0.484134 24.969435 -3.032915 -0.000000 0.000000 -0.000000 -5.880229 -11.203440 -4.136705 0.000000 0.000000 0.000000 -23.070907 10.188977 -36.902549 -0.778792 -43.644014 -0.618958 22.885923 -5.874777 15.640297 -0.936049 -7.901276 8.281058 2.381439 20.006179 -2.031154 0.808442 1.238120 2.631723 0.000001 0.000000 -0.000001 13.380405 -0.903467 10.415430 -0.168402 0.303887 -31.216277 -0.000000 0.000001 -0.000003 8.501000 -0.157136 -1.020048 0.232475 0.661348 -29.983547 -0.000001 -0.000002 0.000001 6.103013 3.435164 -16.138178 0.047766 0.322741 -30.188856 0.000000 0.000002 -0.000002 -5.677997 8.064682 -13.509528 0.223981 0.276484 -46.546175 -0.000000 0.000000 -0.000000 -5.152138 10.691571 2.515987 0.000000 0.000000 0.000000 -41.675349 -27.395448 29.700360 30.755071 113.473799 -29.096490 -7.964707 12.641078 -9.574788 -0.272439 11.449467 -9.779561 1.392580 -17.434075 3.008420 3.351712 -13.302434 -8.284230 -0.000001 -0.000002 0.000002 19.283183 11.017659 -10.724541 -0.128888 -0.328176 19.592159 -0.000001 0.000002 -0.000002 4.335197 1.528105 -2.596403 0.361451 -0.460793 28.315642 -0.000000 -0.000000 -0.000002 -6.574495 -12.132954 7.760421 0.121346 -0.094779 27.577510 -0.000000 0.000001 0.000002 -18.816302 -22.102974 7.642819 0.231375 -0.087302 38.248872 0.000001 0.000000 0.000001 -38.983602 7.878065 26.376652 42.927759 -7.031161 -9.587127 -5.244734 -2.781510 -10.058325 -0.389454 1.237568 0.710784 -0.000000 -0.000001 0.000000 -36.617313 -5.944005 -25.332796 47.506606 1.414223 -7.742955 -14.339316 3.633501 21.201699 -0.427063 -0.995826 -0.791653 0.000000 0.000001 0.000000 
-0.355121 89.673920 0.345636 3.259288 -58.398254 6.655186 11.091385 0.187830 -2.677190 8.236897 0.130306 -5.482831 0.000000 0.000000 0.000000 8.259366 0.130453 -5.482366 -21.566056 24.146869 11.698335 -0.461437 24.621507 -2.974632 0.000001 -0.000000 -0.000001 -5.870537 -11.061409 -4.171696 0.000000 0.000000 0.000000 -22.987258 10.659077 -37.048432 -1.551467 -44.072082 -1.371585 23.004902 -5.957692 15.638852 -0.867462 -7.784716 8.163932 2.371672 19.981939 -2.039797 0.808359 1.238158 2.631906 0.000001 -0.000000 0.000004 13.356447 -0.993999 10.520303 -0.167646 0.303515 -31.113195 -0.000001 0.000002 0.000000 8.488154 -0.167012 -0.852469 0.231254 0.661084 -29.882942 0.000001 0.000001 0.000002 6.084683 3.499124 -15.846324 0.046801 0.322327 -30.097423 -0.000001 0.000000 -0.000003 -5.685250 8.137436 -13.084718 0.222765 0.276406 -46.402389 0.000000 -0.000000 0.000000 -5.178390 10.652666 2.668574 0.000000 0.000000 0.000000 -41.781992 -27.790450 29.400747 35.112691 114.823430 -33.451340 -7.092253 12.745477 -9.489338 -0.610324 12.109769 -9.454122 1.382292 -17.409245 3.017637 3.337028 -13.225096 -8.249954 0.000000 -0.000000 -0.000000 19.197049 10.951343 -9.698040 -0.132396 -0.330085 20.134781 0.000000 -0.000001 -0.000002 4.354858 1.175974 -1.362045 0.367472 -0.460506 29.018994 -0.000000 0.000000 0.000000 -6.208863 -12.853172 9.348212 0.127933 -0.098446 28.547281 -0.000002 0.000000 0.000001 -18.118846 -23.348821 9.489313 0.237869 -0.088352 39.442461 -0.000002 0.000000 0.000001 -39.119198 7.752041 26.321929 43.181450 -6.913937 -9.528720 -5.280835 -2.780840 -10.031513 -0.433857 1.236973 0.615246 0.000000 0.000002 0.000000 -36.649439 -5.778494 -25.205778 47.579603 1.253797 -7.827299 -14.296969 3.624578 21.264990 -0.498204 -0.994852 -0.755841 -0.000000 -0.000000 -0.000000 
-0.371356 89.627876 0.415337 3.395599 -58.435567 6.762469 11.074399 0.209466 -2.656836 8.204045 0.173854 -5.448625 0.000000 0.000000 0.000000 8.226521 0.173981 -5.448156 -21.737108 23.674394 11.523828 -0.392240 24.201025 -2.926327 0.000000 0.000000 0.000000 -5.861936 -10.946072 -4.243527 0.000000 0.000000 0.000000 -22.790239 11.203482 -37.079410 -2.568618 -44.597474 -2.588002 23.074640 -6.037706 15.822746 -0.793069 -7.630840 8.042170 2.357176 19.945576 -2.052798 0.805978 1.229745 2.627724 -0.000002 0.000000 -0.000002 13.321676 -1.130680 10.678602 -0.166631 0.302861 -30.963034 0.000000 0.000000 -0.000000 8.470861 -0.209040 -0.621951 0.229580 0.660876 -29.743927 -0.000001 0.000000 0.000002 6.061151 3.534676 -15.469115 0.045438 0.321648 -29.970996 -0.000000 -0.000001 -0.000001 -5.688047 8.169801 -12.574621 0.221064 0.276203 -46.207903 0.000000 -0.000000 0.000001 -5.219770 10.572295 2.900654 0.000000 0.000000 0.000000 -41.870685 -28.266547 29.056058 41.231673 117.103074 -39.500244 -5.303533 13.017125 -9.364782 -0.958395 12.748957 -9.156990 1.366554 -17.371396 3.031715 3.314520 -13.107307 -8.197833 -0.000000 -0.000000 0.000001 19.126145 10.844621 -8.606073 -0.124165 -0.327538 20.687139 0.000001 0.000002 -0.000003 4.409010 0.792122 0.031967 0.364123 -0.465870 29.789525 -0.000001 -0.000000 0.000001 -5.731554 -13.628146 11.226340 0.115036 -0.114687 29.666517 -0.000001 0.000002 0.000001 -17.191303 -24.730052 11.784477 0.245623 -0.089462 40.852406 -0.000002 -0.000000 -0.000001 -39.302070 7.594907 26.245586 43.502441 -6.771996 -9.460412 -5.320616 -2.779034 -9.999604 -0.498447 1.236145 0.470676 -0.000000 -0.000000 -0.000000 -36.725504 -5.565007 -25.070698 47.709551 1.065953 -7.924093 -14.246071 3.615112 21.329024 -0.609758 -0.993242 -0.670375 -0.000000 -0.000002 0.000000 
-0.383400 89.515335 0.507188 3.670084 -58.444720 7.013342 11.040663 0.240288 -2.631541 8.138132 0.236701 -5.405206 0.000000 0.000000 0.000000 8.160611 0.236865 -5.404747 -21.946745 22.865216 11.187920 -0.802377 23.503041 -2.599673 -0.000000 -0.000000 -0.000001 -5.844671 -10.885920 -4.387929 0.000000 0.000000 0.000000 -22.439516 11.771449 -36.896614 -3.753697 -45.181056 -4.316798 23.006915 -6.112105 16.204813 -0.711299 -7.436460 7.915154 2.336683 19.894623 -2.070959 0.800500 1.210948 2.618759 -0.000001 0.000000 -0.000000 13.278179 -1.312818 10.879068 -0.165239 0.301997 -30.763158 -0.000001 0.000000 0.000002 8.451635 -0.283090 -0.335914 0.227319 0.660493 -29.561243 -0.000000 -0.000000 0.000003 6.033442 3.540656 -15.011344 0.043614 0.320723 -29.802714 -0.000001 -0.000001 0.000000 -5.682848 8.160689 -11.983887 0.218875 0.275916 -45.953643 -0.000000 0.000000 0.000000 -5.304291 10.388883 3.457643 0.000000 0.000000 0.000000 -42.014297 -28.943360 28.295348 48.425403 120.514180 -46.764499 -4.551894 14.324602 -9.035262 -1.319664 13.374240 -8.876194 1.344698 -17.318744 3.051264 3.282782 -12.941734 -8.124514 0.000001 0.000000 -0.000000 19.065621 10.740174 -7.469540 -0.119073 -0.332565 21.237584 -0.000002 -0.000002 -0.000004 4.495648 0.421439 1.570093 0.362213 -0.464398 30.611214 -0.000003 0.000002 0.000003 -5.142866 -14.401520 13.375371 0.104277 -0.113782 30.911975 -0.000002 0.000002 0.000002 -16.014961 -26.172791 14.521626 0.233572 -0.090759 42.446173 0.000000 0.000000 -0.000000 -39.682118 7.319629 26.096700 44.059327 -6.582162 -9.356292 -5.398279 -2.761454 -9.967904 -0.584380 1.235375 0.275416 -0.000000 -0.000001 0.000000 -36.969751 -5.196346 -24.936942 48.042451 0.797310 -8.048838 -14.200123 3.593833 21.419082 -0.773434 -0.991033 -0.507584 0.000000 0.000001 -0.000000 
